<?xml version="1.0" encoding="UTF-8"?>
<!-- Created with Inkscape (http://www.inkscape.org/) -->
<svg width="48" height="48" version="1.1" viewBox="0 0 48 48" xmlns="http://www.w3.org/2000/svg">
 <rect x="1.5" y="15" width="45" height="18" rx="3" ry="3" fill="none" stroke="#999" stroke-width="2"/>
 <g fill="#999" aria-label="SPPG">
  <path d="m10.125 21.648h2.6932c-0.02273-2.1761-1.7557-3.6477-4.4602-3.6477-2.6591 0-4.5739 1.4489-4.5568 3.6136-0.00568 1.767 1.233 2.7614 3.2443 3.2216l1.2159 0.28409c1.2784 0.29545 1.8523 0.64204 1.8636 1.2955-0.01136 0.71023-0.67614 1.2045-1.8068 1.2045-1.2443 0-2.0625-0.57955-2.125-1.6989h-2.6932c0.034091 2.7216 1.9261 4.0227 4.8523 4.0227 2.8977 0 4.6136-1.3125 4.625-3.5227-0.01136-1.858-1.267-2.9943-3.5625-3.5l-1-0.22727c-1.0568-0.22727-1.7273-0.57954-1.7045-1.2727 0.00568-0.63636 0.55114-1.0966 1.642-1.0966 1.0966 0 1.6989 0.49432 1.7727 1.3239z"/>
  <path d="m13.903 29.795h2.8125v-3.6136h1.9091c2.6648 0 4.3295-1.5795 4.3295-3.9943 0-2.392-1.6307-4.0284-4.2443-4.0284h-4.8068zm2.8125-5.8295v-3.5398h1.3864c1.2614 0 1.9375 0.68182 1.9375 1.7614 0 1.0739-0.67614 1.7784-1.9375 1.7784z"/>
  <path d="m23.835 29.795h2.8125v-3.6136h1.9091c2.6648 0 4.3295-1.5795 4.3295-3.9943 0-2.392-1.6307-4.0284-4.2443-4.0284h-4.8068zm2.8125-5.8295v-3.5398h1.3864c1.2614 0 1.9375 0.68182 1.9375 1.7614 0 1.0739-0.67614 1.7784-1.9375 1.7784z"/>
  <path d="m41.403 21.96h2.8466c-0.28409-2.3182-2.3523-3.9602-5.0455-3.9602-3.108 0-5.5625 2.1875-5.5625 5.9943 0 3.6818 2.2614 5.9602 5.5966 5.9602 2.9943 0 5.1364-1.858 5.1364-4.983v-1.5398h-5.017v2.0511h2.3068c-0.02841 1.2273-0.88068 2.0057-2.4034 2.0057-1.7443 0-2.75-1.2898-2.75-3.5284 0-2.2216 1.0625-3.4943 2.75-3.4943 1.125 0 1.892 0.55114 2.142 1.4943z"/>
 </g>
</svg>
